<svg id="Layer_1" data-name="Layer 1" xmlns="http://www.w3.org/2000/svg" viewBox="0 0 25 25"><defs><style>.cls-1,.cls-2{fill:none;stroke-miterlimit:10}.cls-1{stroke-linecap:round;stroke-width:7px;stroke:url(#linear-gradient)}.cls-2{stroke:#3a60d6}</style><linearGradient id="linear-gradient" x1="16.25" y1="23.39" x2="16.25" y2="1.28" gradientUnits="userSpaceOnUse"><stop offset="0" stop-color="#4793ff" stop-opacity=".5"/><stop offset=".23" stop-color="#4793ff" stop-opacity=".4"/><stop offset=".72" stop-color="#4793ff" stop-opacity=".15"/><stop offset="1" stop-color="#4793ff" stop-opacity="0"/></linearGradient></defs><title>LoadBalancer</title><path class="cls-1" d="M20.19 19.89v-6a1.25 1.25 0 0 0-1.25-1.25h-5.38a1.27 1.27 0 0 1-1.26-1.26v-6.6"/><path class="cls-2" d="M20.19 17.19v-3.31a1.25 1.25 0 0 0-1.25-1.25h-5.38a1.27 1.27 0 0 1-1.26-1.26V6M4.41 17.19v-3.31a1.25 1.25 0 0 1 1.26-1.25H11a1.26 1.26 0 0 0 1.26-1.26V6M4.41 17.19s-2.17 1.6-2.17 3.23a2.18 2.18 0 0 0 4.35 0c0-1.57-2.18-3.23-2.18-3.23z"/><circle class="cls-2" cx="12.3" cy="4.3" r="1.71"/><path class="cls-2" d="M20.19 17.19S18 18.79 18 20.42a2.18 2.18 0 0 0 4.35 0c.02-1.57-2.16-3.23-2.16-3.23z"/></svg>